# File produced by Open Asset Import Library (http://www.assimp.sf.net)
# (assimp v4.1.0)

mtllib h0m7ov97t41b.mtl

# 162 vertex positions
v  5.04285717010498 -7.514286041259766 -0.6678570508956909
v  -4.95714282989502 -7.514286041259766 -0.6678570508956909
v  -4.95714282989502 -7.514286041259766 -0.7178570032119751
v  5.04285717010498 -7.514286041259766 -0.7178570032119751
v  -4.95714282989502 7.485713958740234 -0.6678570508956909
v  5.04285717010498 7.485713958740234 -0.6678570508956909
v  -4.95714282989502 7.485713958740234 -0.7178570032119751
v  5.04285717010498 7.485713958740234 -0.7178570032119751
v  -1.057139992713928 0.7357140183448792 1.279999971389771
v  -1.257140040397644 0.7357140183448792 1.279999971389771
v  -1.257140040397644 0.7357140183448792 -0.7200000286102295
v  -1.057139992713928 0.7357140183448792 -0.7200000286102295
v  -1.257140040397644 1.235713958740234 1.279999971389771
v  -1.057139992713928 1.235713958740234 1.279999971389771
v  -1.257140040397644 1.235713958740234 -0.7200000286102295
v  -1.057139992713928 1.235713958740234 -0.7200000286102295
v  0.9736440181732178 1.461459994316101 1.279999971389771
v  0.4736440181732178 1.461459994316101 1.279999971389771
v  0.4736440181732178 1.461459994316101 -0.7200000286102295
v  0.9736440181732178 1.461459994316101 -0.7200000286102295
v  0.4736440181732178 1.761459946632385 1.279999971389771
v  0.9736440181732178 1.761459946632385 1.279999971389771
v  0.4736440181732178 1.761459946632385 -0.7200000286102295
v  0.9736440181732178 1.761459946632385 -0.7200000286102295
v  -1.006080031394958 -1.980649948120117 1.279999971389771
v  -1.506080031394958 -1.980649948120117 1.279999971389771
v  -1.506080031394958 -1.980649948120117 -0.7200000286102295
v  -1.006080031394958 -1.980649948120117 -0.7200000286102295
v  -1.506080031394958 -1.480649948120117 1.279999971389771
v  -1.006080031394958 -1.480649948120117 1.279999971389771
v  -1.506080031394958 -1.480649948120117 -0.7200000286102295
v  -1.006080031394958 -1.480649948120117 -0.7200000286102295
v  3.436559915542603 -0.3386490046977997 1.279999971389771
v  2.436559915542603 -0.3386490046977997 1.279999971389771
v  2.436559915542603 -0.3386490046977997 -0.7200000286102295
v  3.436559915542603 -0.3386490046977997 -0.7200000286102295
v  2.436559915542603 0.1613509953022003 1.279999971389771
v  3.436559915542603 0.1613509953022003 1.279999971389771
v  2.436559915542603 0.1613509953022003 -0.7200000286102295
v  3.436559915542603 0.1613509953022003 -0.7200000286102295
v  -2.608000040054321 -3.011879920959473 1.279999971389771
v  -3.108000040054321 -3.011879920959473 1.279999971389771
v  -3.108000040054321 -3.011879920959473 -0.7200000286102295
v  -2.608000040054321 -3.011879920959473 -0.7200000286102295
v  -3.108000040054321 -2.511879920959473 1.279999971389771
v  -2.608000040054321 -2.511879920959473 1.279999971389771
v  -3.108000040054321 -2.511879920959473 -0.7200000286102295
v  -2.608000040054321 -2.511879920959473 -0.7200000286102295
v  -2.131139993667603 4.615839958190918 0.8500000238418579
v  -2.831139802932739 4.615839958190918 0.8500000238418579
v  -2.831139802932739 4.615839958190918 -0.6499999761581421
v  -2.131139993667603 4.615839958190918 -0.6499999761581421
v  -2.831139802932739 5.315839767456055 0.8500000238418579
v  -2.131139993667603 5.315839767456055 0.8500000238418579
v  -2.831139802932739 5.315839767456055 -0.6499999761581421
v  -2.131139993667603 5.315839767456055 -0.6499999761581421
v  -3.015729904174805 2.72172999382019 0.2821429967880249
v  -3.015729904174805 2.72172999382019 -0.7178570032119751
v  -2.976711750030518 2.717886924743652 -0.7178570032119751
v  -2.976711750030518 2.717886924743652 0.2821429967880249
v  -2.939193248748779 2.70650577545166 -0.7178570032119751
v  -2.939193248748779 2.70650577545166 0.2821429967880249
v  -2.904615879058838 2.688023805618286 -0.7178570032119751
v  -2.904615879058838 2.688023805618286 0.2821429967880249
v  -2.874308586120605 2.663151264190674 -0.7178570032119751
v  -2.874308586120605 2.663151264190674 0.2821429967880249
v  -2.849436044692993 2.632843971252441 -0.7178570032119751
v  -2.849436044692993 2.632843971252441 0.2821429967880249
v  -2.830954074859619 2.5982666015625 -0.7178570032119751
v  -2.830954074859619 2.5982666015625 0.2821429967880249
v  -2.819572925567627 2.560748100280762 -0.7178570032119751
v  -2.819572925567627 2.560748100280762 0.2821429967880249
v  -2.815729856491089 2.521729946136475 -0.7178570032119751
v  -2.815729856491089 2.521729946136475 0.2821429967880249
v  -2.819572925567627 2.482711791992188 -0.7178570032119751
v  -2.819572925567627 2.482711791992188 0.2821429967880249
v  -2.830954074859619 2.445193290710449 -0.7178570032119751
v  -2.830954074859619 2.445193290710449 0.2821429967880249
v  -2.849436044692993 2.410615921020508 -0.7178570032119751
v  -2.849436044692993 2.410615921020508 0.2821429967880249
v  -2.874308586120605 2.380308628082275 -0.7178570032119751
v  -2.874308586120605 2.380308628082275 0.2821429967880249
v  -2.904615879058838 2.355436086654663 -0.7178570032119751
v  -2.904615879058838 2.355436086654663 0.2821429967880249
v  -2.939193248748779 2.336954116821289 -0.7178570032119751
v  -2.939193248748779 2.336954116821289 0.2821429967880249
v  -2.976711750030518 2.325572967529297 -0.7178570032119751
v  -2.976711750030518 2.325572967529297 0.2821429967880249
v  -3.015729904174805 2.321729898452759 -0.7178570032119751
v  -3.015729904174805 2.321729898452759 0.2821429967880249
v  -3.054748058319092 2.325572967529297 -0.7178570032119751
v  -3.054748058319092 2.325572967529297 0.2821429967880249
v  -3.09226655960083 2.336954116821289 -0.7178570032119751
v  -3.09226655960083 2.336954116821289 0.2821429967880249
v  -3.126843929290771 2.355436086654663 -0.7178570032119751
v  -3.126843929290771 2.355436086654663 0.2821429967880249
v  -3.157151222229004 2.380308628082275 -0.7178570032119751
v  -3.157151222229004 2.380308628082275 0.2821429967880249
v  -3.182023763656616 2.410615921020508 -0.7178570032119751
v  -3.182023763656616 2.410615921020508 0.2821429967880249
v  -3.20050573348999 2.445193290710449 -0.7178570032119751
v  -3.20050573348999 2.445193290710449 0.2821429967880249
v  -3.211886882781982 2.482711791992188 -0.7178570032119751
v  -3.211886882781982 2.482711791992188 0.2821429967880249
v  -3.215729951858521 2.521729946136475 -0.7178570032119751
v  -3.215729951858521 2.521729946136475 0.2821429967880249
v  -3.211886882781982 2.560748100280762 -0.7178570032119751
v  -3.211886882781982 2.560748100280762 0.2821429967880249
v  -3.20050573348999 2.5982666015625 -0.7178570032119751
v  -3.20050573348999 2.5982666015625 0.2821429967880249
v  -3.182023763656616 2.632843971252441 -0.7178570032119751
v  -3.182023763656616 2.632843971252441 0.2821429967880249
v  -3.157151222229004 2.663151264190674 -0.7178570032119751
v  -3.157151222229004 2.663151264190674 0.2821429967880249
v  -3.126843929290771 2.688023805618286 -0.7178570032119751
v  -3.126843929290771 2.688023805618286 0.2821429967880249
v  -3.09226655960083 2.70650577545166 -0.7178570032119751
v  -3.09226655960083 2.70650577545166 0.2821429967880249
v  -3.054748058319092 2.717886924743652 -0.7178570032119751
v  -3.054748058319092 2.717886924743652 0.2821429967880249
v  -3.015729904174805 2.521729946136475 0.2821429967880249
v  -3.015729904174805 2.521729946136475 -0.7178570032119751
v  1.5728600025177 -2.034290075302124 1.799999952316284
v  1.0728600025177 -2.034290075302124 1.799999952316284
v  1.0728600025177 -2.034290075302124 -0.699999988079071
v  1.5728600025177 -2.034290075302124 -0.699999988079071
v  1.0728600025177 -1.534290075302124 1.799999952316284
v  1.5728600025177 -1.534290075302124 1.799999952316284
v  1.0728600025177 -1.534290075302124 -0.699999988079071
v  1.5728600025177 -1.534290075302124 -0.699999988079071
v  -0.09369701147079468 -4.389229774475098 0.7521430253982544
v  -0.5936970114707947 -4.389229774475098 0.7521430253982544
v  -0.5936970114707947 -4.389229774475098 -0.7478569746017456
v  -0.09369701147079468 -4.389229774475098 -0.7478569746017456
v  -0.5936970114707947 -3.889229774475098 0.7521430253982544
v  -0.09369701147079468 -3.889229774475098 0.7521430253982544
v  -0.5936970114707947 -3.889229774475098 -0.7478569746017456
v  -0.09369701147079468 -3.889229774475098 -0.7478569746017456
v  -2.440279960632324 -0.5603269934654236 0.75
v  -2.940279960632324 -0.5603269934654236 0.75
v  -2.940279960632324 -0.5603269934654236 -0.75
v  -2.440279960632324 -0.5603269934654236 -0.75
v  -2.940279960632324 -0.06032699346542358 0.75
v  -2.440279960632324 -0.06032699346542358 0.75
v  -2.940279960632324 -0.06032699346542358 -0.75
v  -2.440279960632324 -0.06032699346542358 -0.75
v  2.996670007705688 2.967269897460938 1.279999971389771
v  2.496670007705688 2.967269897460938 1.279999971389771
v  2.496670007705688 2.967269897460938 -0.7200000286102295
v  2.996670007705688 2.967269897460938 -0.7200000286102295
v  2.496670007705688 3.467269897460938 1.279999971389771
v  2.996670007705688 3.467269897460938 1.279999971389771
v  2.496670007705688 3.467269897460938 -0.7200000286102295
v  2.996670007705688 3.467269897460938 -0.7200000286102295
v  -0.1385560035705566 3.561229944229126 0.75
v  -0.6385560035705566 3.561229944229126 0.75
v  -0.6385560035705566 3.561229944229126 -0.75
v  -0.1385560035705566 3.561229944229126 -0.75
v  -0.6385560035705566 4.061229705810547 0.75
v  -0.1385560035705566 4.061229705810547 0.75
v  -0.6385560035705566 4.061229705810547 -0.75
v  -0.1385560035705566 4.061229705810547 -0.75

# 66 UV coordinates
vt 1 1 0
vt 0 1 0
vt 0 0 0
vt 1 0 0
vt 0.03125 1 0
vt 0.03125 0 0
vt 0.0625 1 0
vt 0.0625 0 0
vt 0.09375 1 0
vt 0.09375 0 0
vt 0.125 1 0
vt 0.125 0 0
vt 0.15625 1 0
vt 0.15625 0 0
vt 0.1875 1 0
vt 0.1875 0 0
vt 0.21875 1 0
vt 0.21875 0 0
vt 0.25 1 0
vt 0.25 0 0
vt 0.28125 1 0
vt 0.28125 0 0
vt 0.3125 1 0
vt 0.3125 0 0
vt 0.34375 1 0
vt 0.34375 0 0
vt 0.375 1 0
vt 0.375 0 0
vt 0.40625 1 0
vt 0.40625 0 0
vt 0.4375 1 0
vt 0.4375 0 0
vt 0.46875 1 0
vt 0.46875 0 0
vt 0.5 1 0
vt 0.5 0 0
vt 0.53125 1 0
vt 0.53125 0 0
vt 0.5625 1 0
vt 0.5625 0 0
vt 0.59375 1 0
vt 0.59375 0 0
vt 0.625 1 0
vt 0.625 0 0
vt 0.65625 1 0
vt 0.65625 0 0
vt 0.6875 1 0
vt 0.6875 0 0
vt 0.71875 1 0
vt 0.71875 0 0
vt 0.75 1 0
vt 0.75 0 0
vt 0.78125 1 0
vt 0.78125 0 0
vt 0.8125 1 0
vt 0.8125 0 0
vt 0.84375 1 0
vt 0.84375 0 0
vt 0.875 1 0
vt 0.875 0 0
vt 0.90625 1 0
vt 0.90625 0 0
vt 0.9375 1 0
vt 0.9375 0 0
vt 0.96875 1 0
vt 0.96875 0 0

# 38 vertex normals
vn 0 -1 0
vn 0 1 0
vn 0 0 1
vn -1 0 0
vn 0 0 -1
vn 1 0 0
vn 1.700000069604357e-07 1 0
vn 0.1950903236865997 0.9807852506637573 0
vn 0.3826834559440613 0.9238795042037964 0
vn 0.5555702447891235 0.8314695954322815 0
vn 0.7071067690849304 0.7071067690849304 0
vn 0.8314696550369263 0.5555701851844788 0
vn 0.9238795042037964 0.3826834261417389 0
vn 0.9807853102684021 0.1950902342796326 0
vn 1 -3.999999975690116e-08 0
vn 0.9807852506637573 -0.1950903236865997 0
vn 0.9238795042037964 -0.3826835155487061 0
vn 0.8314695358276367 -0.5555703639984131 0
vn 0.7071067690849304 -0.7071067690849304 0
vn 0.5555701851844788 -0.8314696550369263 0
vn 0.382683277130127 -0.9238796234130859 0
vn 0.1950902938842773 -0.9807852506637573 0
vn -9.000000034120603e-08 -1 0
vn -0.1950904875993729 -0.9807852506637573 0
vn -0.3826834261417389 -0.9238795042037964 0
vn -0.5555703043937683 -0.8314695358276367 0
vn -0.70710688829422 -0.7071066498756409 0
vn -0.8314697742462158 -0.5555700063705444 0
vn -0.9238796830177307 -0.382683128118515 0
vn -0.9807852506637573 -0.1950903832912445 0
vn -1 9.99999993922529e-09 0
vn -0.9807852506637573 0.1950904130935669 0
vn -0.9238794445991516 0.3826836049556732 0
vn -0.8314694762229919 0.5555704236030579 0
vn -0.7071065306663513 0.7071070075035095 0
vn -0.5555703043937683 0.8314695954322815 0
vn -0.3826834261417389 0.9238795638084412 0
vn -0.1950902342796326 0.9807853102684021 0

# Mesh 'node_0' with 12 faces
g node_0
usemtl material_0
f  1/1/1 2/2/1 3/3/1
f  3/3/1 4/4/1 1/1/1
f  5/1/2 6/2/2 7/4/2
f  7/4/2 6/2/2 8/3/2
f  2/4/3 1/1/3 6/2/3
f  6/2/3 5/3/3 2/4/3
f  2/1/4 5/2/4 3/4/4
f  3/4/4 5/2/4 7/3/4
f  3/1/5 7/2/5 8/3/5
f  8/3/5 4/4/5 3/1/5
f  1/2/6 4/3/6 8/4/6
f  8/4/6 6/1/6 1/2/6

# Mesh 'node_1' with 12 faces
g node_1
usemtl material_1
f  9/1/1 10/2/1 11/3/1
f  11/3/1 12/4/1 9/1/1
f  13/1/2 14/2/2 15/4/2
f  15/4/2 14/2/2 16/3/2
f  10/4/3 9/1/3 14/2/3
f  14/2/3 13/3/3 10/4/3
f  10/1/4 13/2/4 11/4/4
f  11/4/4 13/2/4 15/3/4
f  11/1/5 15/2/5 16/3/5
f  16/3/5 12/4/5 11/1/5
f  9/2/6 12/3/6 16/4/6
f  16/4/6 14/1/6 9/2/6

# Mesh 'node_2' with 12 faces
g node_2
usemtl material_2
f  17/1/1 18/2/1 19/3/1
f  19/3/1 20/4/1 17/1/1
f  21/1/2 22/2/2 23/4/2
f  23/4/2 22/2/2 24/3/2
f  18/4/3 17/1/3 22/2/3
f  22/2/3 21/3/3 18/4/3
f  18/1/4 21/2/4 19/4/4
f  19/4/4 21/2/4 23/3/4
f  19/1/5 23/2/5 24/3/5
f  24/3/5 20/4/5 19/1/5
f  17/2/6 20/3/6 24/4/6
f  24/4/6 22/1/6 17/2/6

# Mesh 'node_3' with 12 faces
g node_3
usemtl material_3
f  25/1/1 26/2/1 27/3/1
f  27/3/1 28/4/1 25/1/1
f  29/1/2 30/2/2 31/4/2
f  31/4/2 30/2/2 32/3/2
f  26/4/3 25/1/3 30/2/3
f  30/2/3 29/3/3 26/4/3
f  26/1/4 29/2/4 27/4/4
f  27/4/4 29/2/4 31/3/4
f  27/1/5 31/2/5 32/3/5
f  32/3/5 28/4/5 27/1/5
f  25/2/6 28/3/6 32/4/6
f  32/4/6 30/1/6 25/2/6

# Mesh 'node_4' with 12 faces
g node_4
usemtl material_4
f  33/1/1 34/2/1 35/3/1
f  35/3/1 36/4/1 33/1/1
f  37/1/2 38/2/2 39/4/2
f  39/4/2 38/2/2 40/3/2
f  34/4/3 33/1/3 38/2/3
f  38/2/3 37/3/3 34/4/3
f  34/1/4 37/2/4 35/4/4
f  35/4/4 37/2/4 39/3/4
f  35/1/5 39/2/5 40/3/5
f  40/3/5 36/4/5 35/1/5
f  33/2/6 36/3/6 40/4/6
f  40/4/6 38/1/6 33/2/6

# Mesh 'node_5' with 12 faces
g node_5
usemtl material_5
f  41/1/1 42/2/1 43/3/1
f  43/3/1 44/4/1 41/1/1
f  45/1/2 46/2/2 47/4/2
f  47/4/2 46/2/2 48/3/2
f  42/4/3 41/1/3 46/2/3
f  46/2/3 45/3/3 42/4/3
f  42/1/4 45/2/4 43/4/4
f  43/4/4 45/2/4 47/3/4
f  43/1/5 47/2/5 48/3/5
f  48/3/5 44/4/5 43/1/5
f  41/2/6 44/3/6 48/4/6
f  48/4/6 46/1/6 41/2/6

# Mesh 'node_6' with 12 faces
g node_6
usemtl material_6
f  49/1/1 50/2/1 51/3/1
f  51/3/1 52/4/1 49/1/1
f  53/1/2 54/2/2 55/4/2
f  55/4/2 54/2/2 56/3/2
f  50/4/3 49/1/3 54/2/3
f  54/2/3 53/3/3 50/4/3
f  50/1/4 53/2/4 51/4/4
f  51/4/4 53/2/4 55/3/4
f  51/1/5 55/2/5 56/3/5
f  56/3/5 52/4/5 51/1/5
f  49/2/6 52/3/6 56/4/6
f  56/4/6 54/1/6 49/2/6

# Mesh 'node_7' with 130 faces
g node_7
usemtl material_7
f  57/3/2 58/2/2 58/1/7
f  57/3/2 59/5/8 58/2/2
f  60/6/8 59/5/8 57/3/2
f  60/6/8 61/7/9 59/5/8
f  62/8/9 61/7/9 60/6/8
f  62/8/9 63/9/10 61/7/9
f  64/10/10 63/9/10 62/8/9
f  64/10/10 65/11/11 63/9/10
f  66/12/11 65/11/11 64/10/10
f  66/12/11 67/13/12 65/11/11
f  68/14/12 67/13/12 66/12/11
f  68/14/12 69/15/13 67/13/12
f  70/16/13 69/15/13 68/14/12
f  70/16/13 71/17/14 69/15/13
f  72/18/14 71/17/14 70/16/13
f  72/18/14 73/19/15 71/17/14
f  74/20/15 73/19/15 72/18/14
f  74/20/15 75/21/16 73/19/15
f  76/22/16 75/21/16 74/20/15
f  76/22/16 77/23/17 75/21/16
f  78/24/17 77/23/17 76/22/16
f  78/24/17 79/25/18 77/23/17
f  80/26/18 79/25/18 78/24/17
f  80/26/18 81/27/19 79/25/18
f  82/28/19 81/27/19 80/26/18
f  82/28/19 83/29/20 81/27/19
f  84/30/20 83/29/20 82/28/19
f  84/30/20 85/31/21 83/29/20
f  86/32/21 85/31/21 84/30/20
f  86/32/21 87/33/22 85/31/21
f  88/34/22 87/33/22 86/32/21
f  88/34/22 89/35/23 87/33/22
f  90/36/23 89/35/23 88/34/22
f  90/36/23 91/37/24 89/35/23
f  92/38/24 91/37/24 90/36/23
f  92/38/24 93/39/25 91/37/24
f  94/40/25 93/39/25 92/38/24
f  94/40/25 95/41/26 93/39/25
f  96/42/26 95/41/26 94/40/25
f  96/42/26 97/43/27 95/41/26
f  98/44/27 97/43/27 96/42/26
f  98/44/27 99/45/28 97/43/27
f  100/46/28 99/45/28 98/44/27
f  100/46/28 101/47/29 99/45/28
f  102/48/29 101/47/29 100/46/28
f  102/48/29 103/49/30 101/47/29
f  104/50/30 103/49/30 102/48/29
f  104/50/30 105/51/31 103/49/30
f  106/52/31 105/51/31 104/50/30
f  106/52/31 107/53/32 105/51/31
f  108/54/32 107/53/32 106/52/31
f  108/54/32 109/55/33 107/53/32
f  110/56/33 109/55/33 108/54/32
f  110/56/33 111/57/34 109/55/33
f  112/58/34 111/57/34 110/56/33
f  112/58/34 113/59/35 111/57/34
f  114/60/35 113/59/35 112/58/34
f  114/60/35 115/61/36 113/59/35
f  116/62/36 115/61/36 114/60/35
f  116/62/36 117/63/37 115/61/36
f  118/64/37 117/63/37 116/62/36
f  118/64/37 119/65/38 117/63/37
f  120/66/38 119/65/38 118/64/37
f  120/66/38 58/1/7 119/65/38
f  57/4/7 58/1/7 120/66/38
f  57/4/7 57/3/2 58/1/7
f  121/2/3 60/6/3 57/3/3
f  121/2/3 62/8/3 60/6/3
f  121/2/3 64/10/3 62/8/3
f  121/2/3 66/12/3 64/10/3
f  121/2/3 68/14/3 66/12/3
f  121/2/3 70/16/3 68/14/3
f  121/2/3 72/18/3 70/16/3
f  121/2/3 74/20/3 72/18/3
f  121/2/3 76/22/3 74/20/3
f  121/2/3 78/24/3 76/22/3
f  121/2/3 80/26/3 78/24/3
f  121/2/3 82/28/3 80/26/3
f  121/2/3 84/30/3 82/28/3
f  121/2/3 86/32/3 84/30/3
f  121/2/3 88/34/3 86/32/3
f  121/2/3 90/36/3 88/34/3
f  121/2/3 92/38/3 90/36/3
f  121/2/3 94/40/3 92/38/3
f  121/2/3 96/42/3 94/40/3
f  121/2/3 98/44/3 96/42/3
f  121/2/3 100/46/3 98/44/3
f  121/2/3 102/48/3 100/46/3
f  121/2/3 104/50/3 102/48/3
f  121/2/3 106/52/3 104/50/3
f  121/2/3 108/54/3 106/52/3
f  121/2/3 110/56/3 108/54/3
f  121/2/3 112/58/3 110/56/3
f  121/2/3 114/60/3 112/58/3
f  121/2/3 116/62/3 114/60/3
f  121/2/3 118/64/3 116/62/3
f  121/2/3 120/66/3 118/64/3
f  121/2/3 57/4/3 120/66/3
f  122/2/5 58/2/5 59/5/5
f  122/2/5 59/5/5 61/7/5
f  122/2/5 61/7/5 63/9/5
f  122/2/5 63/9/5 65/11/5
f  122/2/5 65/11/5 67/13/5
f  122/2/5 67/13/5 69/15/5
f  122/2/5 69/15/5 71/17/5
f  122/2/5 71/17/5 73/19/5
f  122/2/5 73/19/5 75/21/5
f  122/2/5 75/21/5 77/23/5
f  122/2/5 77/23/5 79/25/5
f  122/2/5 79/25/5 81/27/5
f  122/2/5 81/27/5 83/29/5
f  122/2/5 83/29/5 85/31/5
f  122/2/5 85/31/5 87/33/5
f  122/2/5 87/33/5 89/35/5
f  122/2/5 89/35/5 91/37/5
f  122/2/5 91/37/5 93/39/5
f  122/2/5 93/39/5 95/41/5
f  122/2/5 95/41/5 97/43/5
f  122/2/5 97/43/5 99/45/5
f  122/2/5 99/45/5 101/47/5
f  122/2/5 101/47/5 103/49/5
f  122/2/5 103/49/5 105/51/5
f  122/2/5 105/51/5 107/53/5
f  122/2/5 107/53/5 109/55/5
f  122/2/5 109/55/5 111/57/5
f  122/2/5 111/57/5 113/59/5
f  122/2/5 113/59/5 115/61/5
f  122/2/5 115/61/5 117/63/5
f  122/2/5 117/63/5 119/65/5
f  122/2/5 119/65/5 58/1/5

# Mesh 'node_8' with 12 faces
g node_8
usemtl material_8
f  123/1/1 124/2/1 125/3/1
f  125/3/1 126/4/1 123/1/1
f  127/1/2 128/2/2 129/4/2
f  129/4/2 128/2/2 130/3/2
f  124/4/3 123/1/3 128/2/3
f  128/2/3 127/3/3 124/4/3
f  124/1/4 127/2/4 125/4/4
f  125/4/4 127/2/4 129/3/4
f  125/1/5 129/2/5 130/3/5
f  130/3/5 126/4/5 125/1/5
f  123/2/6 126/3/6 130/4/6
f  130/4/6 128/1/6 123/2/6

# Mesh 'node_9' with 12 faces
g node_9
usemtl material_9
f  131/1/1 132/2/1 133/3/1
f  133/3/1 134/4/1 131/1/1
f  135/1/2 136/2/2 137/4/2
f  137/4/2 136/2/2 138/3/2
f  132/4/3 131/1/3 136/2/3
f  136/2/3 135/3/3 132/4/3
f  132/1/4 135/2/4 133/4/4
f  133/4/4 135/2/4 137/3/4
f  133/1/5 137/2/5 138/3/5
f  138/3/5 134/4/5 133/1/5
f  131/2/6 134/3/6 138/4/6
f  138/4/6 136/1/6 131/2/6

# Mesh 'node_10' with 12 faces
g node_10
usemtl material_10
f  139/1/1 140/2/1 141/3/1
f  141/3/1 142/4/1 139/1/1
f  143/1/2 144/2/2 145/4/2
f  145/4/2 144/2/2 146/3/2
f  140/4/3 139/1/3 144/2/3
f  144/2/3 143/3/3 140/4/3
f  140/1/4 143/2/4 141/4/4
f  141/4/4 143/2/4 145/3/4
f  141/1/5 145/2/5 146/3/5
f  146/3/5 142/4/5 141/1/5
f  139/2/6 142/3/6 146/4/6
f  146/4/6 144/1/6 139/2/6

# Mesh 'node_11' with 12 faces
g node_11
usemtl material_11
f  147/1/1 148/2/1 149/3/1
f  149/3/1 150/4/1 147/1/1
f  151/1/2 152/2/2 153/4/2
f  153/4/2 152/2/2 154/3/2
f  148/4/3 147/1/3 152/2/3
f  152/2/3 151/3/3 148/4/3
f  148/1/4 151/2/4 149/4/4
f  149/4/4 151/2/4 153/3/4
f  149/1/5 153/2/5 154/3/5
f  154/3/5 150/4/5 149/1/5
f  147/2/6 150/3/6 154/4/6
f  154/4/6 152/1/6 147/2/6

# Mesh 'node_12' with 12 faces
g node_12
usemtl material_12
f  155/1/1 156/2/1 157/3/1
f  157/3/1 158/4/1 155/1/1
f  159/1/2 160/2/2 161/4/2
f  161/4/2 160/2/2 162/3/2
f  156/4/3 155/1/3 160/2/3
f  160/2/3 159/3/3 156/4/3
f  156/1/4 159/2/4 157/4/4
f  157/4/4 159/2/4 161/3/4
f  157/1/5 161/2/5 162/3/5
f  162/3/5 158/4/5 157/1/5
f  155/2/6 158/3/6 162/4/6
f  162/4/6 160/1/6 155/2/6

